name C:/MyDriveSym/Projects/mobilecap/Data\Session20210823_0001\mocap\ForceDataProcessed\DJAsym3_forces.mot
datacolumns 28
datarows 10
range 1.67200000 1.67650000
endheader 
time	R_ground_force_vx	R_ground_force_vy	R_ground_force_vz	R_ground_force_px	R_ground_force_py	R_ground_force_pz	R_ground_torque_x	R_ground_torque_y	R_ground_torque_z	L_ground_force_vx	L_ground_force_vy	L_ground_force_vz	L_ground_force_px	L_ground_force_py	L_ground_force_pz	L_ground_torque_x	L_ground_torque_y	L_ground_torque_z	3_ground_force_vx	3_ground_force_vy	3_ground_force_vz	3_ground_force_px	3_ground_force_py	3_ground_force_pz	3_ground_torque_x	3_ground_torque_y	3_ground_torque_z	
          1.67200000	         -6.86216400	        327.57812200	        -29.16338700	         -0.14637700	          0.00600000	         -0.44921300	          0.00000000	         -0.11540200	          0.00000000	         19.16790000	        176.47703300	         16.50495500	         -0.20400900	          0.00600000	         -0.76713100	          0.00000000	          1.35865200	          0.00000000	          0.00000000	          0.00000000	          0.00000000	          0.00000000	          0.00000000	          0.00000000	          0.00000000	          0.00000000	          0.00000000	
          1.67250000	         -5.21765000	        320.38505700	        -28.44098300	         -0.14623600	          0.00600000	         -0.44907300	          0.00000000	         -0.12707100	          0.00000000	         19.57919000	        170.48444700	         16.13790300	         -0.20363400	          0.00600000	         -0.76709200	          0.00000000	          1.33748300	          0.00000000	          0.00000000	          0.00000000	          0.00000000	          0.00000000	          0.00000000	          0.00000000	          0.00000000	          0.00000000	          0.00000000	
          1.67300000	         -3.60640300	        313.15372200	        -27.70559100	         -0.14609200	          0.00600000	         -0.44893100	          0.00000000	         -0.14022500	          0.00000000	         19.94426600	        164.53447100	         15.77232800	         -0.20324800	          0.00600000	         -0.76704200	          0.00000000	          1.31606100	          0.00000000	          0.00000000	          0.00000000	          0.00000000	          0.00000000	          0.00000000	          0.00000000	          0.00000000	          0.00000000	          0.00000000	
          1.67350000	         -2.03042600	        305.88726600	        -26.95775500	         -0.14594300	          0.00600000	         -0.44878900	          0.00000000	         -0.15474500	          0.00000000	         20.26315200	        158.63052400	         15.40804000	         -0.20284900	          0.00600000	         -0.76698100	          0.00000000	          1.29442000	          0.00000000	          0.00000000	          0.00000000	          0.00000000	          0.00000000	          0.00000000	          0.00000000	          0.00000000	          0.00000000	          0.00000000	
          1.67400000	         -0.49164500	        298.58906700	        -26.19812700	         -0.14578900	          0.00600000	         -0.44864700	          0.00000000	         -0.17050200	          0.00000000	         20.53591900	        152.77607500	         15.04487500	         -0.20243600	          0.00600000	         -0.76690500	          0.00000000	          1.27260300	          0.00000000	          0.00000000	          0.00000000	          0.00000000	          0.00000000	          0.00000000	          0.00000000	          0.00000000	          0.00000000	          0.00000000	
          1.67450000	          1.00809400	        291.26276000	        -25.42746300	         -0.14563000	          0.00600000	         -0.44850400	          0.00000000	         -0.18735500	          0.00000000	         20.76269500	        146.97466000	         14.68269900	         -0.20200900	          0.00600000	         -0.76681500	          0.00000000	          1.25066000	          0.00000000	          0.00000000	          0.00000000	          0.00000000	          0.00000000	          0.00000000	          0.00000000	          0.00000000	          0.00000000	          0.00000000	
          1.67500000	          2.46703700	        283.91225600	        -24.64662300	         -0.14546600	          0.00600000	         -0.44836100	          0.00000000	         -0.20515100	          0.00000000	         20.94367300	        141.22988300	         14.32140400	         -0.20156700	          0.00600000	         -0.76670800	          0.00000000	          1.22864300	          0.00000000	          0.00000000	          0.00000000	          0.00000000	          0.00000000	          0.00000000	          0.00000000	          0.00000000	          0.00000000	          0.00000000	
          1.67550000	          3.88351900	        276.54173200	        -23.85655200	         -0.14529700	          0.00600000	         -0.44821800	          0.00000000	         -0.22373700	          0.00000000	         21.07912700	        135.54542700	         13.96091000	         -0.20110800	          0.00600000	         -0.76658200	          0.00000000	          1.20660700	          0.00000000	          0.00000000	          0.00000000	          0.00000000	          0.00000000	          0.00000000	          0.00000000	          0.00000000	          0.00000000	          0.00000000	
          1.67600000	          5.25598000	        269.15561200	        -23.05826400	         -0.14512200	          0.00600000	         -0.44807500	          0.00000000	         -0.24295300	          0.00000000	         21.16941300	        129.92505600	         13.60116600	         -0.20063100	          0.00600000	         -0.76643500	          0.00000000	          1.18460200	          0.00000000	          0.00000000	          0.00000000	          0.00000000	          0.00000000	          0.00000000	          0.00000000	          0.00000000	          0.00000000	          0.00000000	
          1.67650000	          6.58295900	        261.75851800	        -22.25283400	         -0.14494100	          0.00600000	         -0.44793300	          0.00000000	         -0.26264500	          0.00000000	         21.21496400	        124.37262300	         13.24215800	         -0.20013300	          0.00600000	         -0.76626300	          0.00000000	          1.16267200	          0.00000000	          0.00000000	          0.00000000	          0.00000000	          0.00000000	          0.00000000	          0.00000000	          0.00000000	          0.00000000	          0.00000000	
